<svg xmlns="http://www.w3.org/2000/svg" width="300" height="200" viewBox="0 0 300 200"><rect width="100%" height="100%" fill="#ddf4ff"/><path fill="#0969da" d="M59.885 82.915h4.57v27.49h-4.57zm17.54 8.21q2.11 0 3.84.69 1.73.68 2.96 1.94t1.89 3.07q.67 1.81.67 4.05 0 2.26-.67 4.07-.66 1.82-1.89 3.09-1.23 1.28-2.96 1.96-1.73.69-3.84.69-2.13 0-3.87-.69-1.74-.68-2.97-1.96-1.23-1.27-1.9-3.09-.68-1.81-.68-4.07 0-2.24.68-4.05.67-1.81 1.9-3.07t2.97-1.94q1.74-.69 3.87-.69m0 16.04q2.37 0 3.5-1.59 1.14-1.59 1.14-4.66t-1.14-4.68q-1.13-1.61-3.5-1.61-2.41 0-3.56 1.62-1.16 1.62-1.16 4.67t1.16 4.65q1.15 1.6 3.56 1.6m27.66-13.39-1.21 1.66q-.2.26-.39.41-.2.15-.57.15-.35 0-.68-.21-.34-.22-.8-.49-.46-.26-1.1-.48-.64-.21-1.58-.21-1.2 0-2.11.44-.91.43-1.51 1.24-.6.82-.9 1.97-.29 1.16-.29 2.62 0 1.52.32 2.7.33 1.19.94 1.99.61.81 1.48 1.22.87.42 1.96.42t1.76-.27q.68-.27 1.14-.59t.81-.59q.34-.27.76-.27.56 0 .84.42l1.31 1.67q-.76.89-1.65 1.49-.88.6-1.84.96-.95.36-1.96.51t-2 .15q-1.76 0-3.32-.66-1.55-.66-2.72-1.91-1.16-1.26-1.84-3.08-.67-1.83-.67-4.16 0-2.09.6-3.87.6-1.79 1.77-3.09 1.16-1.31 2.88-2.05t3.96-.74q2.13 0 3.73.69 1.6.68 2.88 1.96m13.06 11.73v-3.2q-1.98.09-3.33.34t-2.17.64q-.81.39-1.16.9-.35.52-.35 1.13 0 1.21.71 1.72.71.52 1.86.52 1.4 0 2.43-.51t2.01-1.54m-9.66-9.97-.81-1.47q3.27-2.99 7.88-2.99 1.66 0 2.98.54 1.31.55 2.22 1.52.9.97 1.37 2.32.48 1.35.48 2.96v11.99h-2.08q-.64 0-1-.19-.35-.2-.55-.79l-.41-1.37q-.72.65-1.4 1.14-.69.49-1.43.82t-1.58.51-1.86.18q-1.2 0-2.22-.33-1.02-.32-1.76-.97t-1.14-1.61q-.41-.96-.41-2.24 0-.72.24-1.43t.79-1.36q.54-.65 1.41-1.22t2.14-1 2.95-.69q1.68-.27 3.85-.33v-1.11q0-1.9-.82-2.82-.81-.91-2.35-.91-1.11 0-1.84.25-.73.26-1.28.59-.56.32-1.01.58t-1.01.26q-.48 0-.81-.25-.34-.25-.54-.58m18.46-12.62h4.57v27.49h-4.57zm18.28 8.51h4.59v18.98h-4.59zm5.22-5.53q0 .59-.24 1.11t-.64.9q-.4.39-.94.62-.53.24-1.14.24-.59 0-1.12-.24-.53-.23-.92-.62-.39-.38-.62-.9t-.23-1.11q0-.61.23-1.15t.62-.92q.39-.39.92-.62.53-.24 1.12-.24.61 0 1.14.24.54.23.94.62.4.38.64.92t.24 1.15m8.6 24.51h-4.57v-18.98h2.79q.89 0 1.17.83l.3 1.41q.5-.56 1.04-1.02.55-.46 1.17-.8.62-.33 1.33-.52.71-.2 1.56-.2 1.8 0 2.95.97 1.16.98 1.73 2.59.45-.95 1.11-1.62.67-.68 1.46-1.1.8-.43 1.7-.63.89-.21 1.8-.21 1.57 0 2.79.48 1.22.49 2.06 1.41.83.93 1.26 2.26.44 1.33.44 3.05v12.08h-4.57v-12.08q0-1.81-.8-2.73-.79-.91-2.33-.91-.7 0-1.3.24t-1.06.69q-.45.45-.71 1.14-.26.68-.26 1.57v12.08h-4.58v-12.08q0-1.91-.77-2.78-.77-.86-2.25-.86-1 0-1.86.49t-1.6 1.34zm36.44-4.9v-3.2q-1.97.09-3.33.34-1.35.25-2.16.64t-1.16.9q-.36.52-.36 1.13 0 1.21.72 1.72.71.52 1.86.52 1.4 0 2.43-.51 1.02-.51 2-1.54m-9.65-9.97-.82-1.47q3.28-2.99 7.88-2.99 1.67 0 2.98.54 1.32.55 2.22 1.52.91.97 1.38 2.32t.47 2.96v11.99h-2.07q-.65 0-1-.19-.35-.2-.55-.79l-.41-1.37q-.72.65-1.41 1.14-.68.49-1.42.82t-1.58.51-1.86.18q-1.2 0-2.22-.33-1.02-.32-1.76-.97t-1.15-1.61q-.4-.96-.4-2.24 0-.72.24-1.43t.78-1.36q.55-.65 1.42-1.22t2.14-1q1.26-.43 2.95-.69 1.68-.27 3.84-.33v-1.11q0-1.9-.81-2.82-.81-.91-2.35-.91-1.11 0-1.84.25-.73.26-1.29.59l-1 .58q-.46.26-1.01.26-.48 0-.82-.25-.33-.25-.53-.58m25.34 4.92q.85 0 1.48-.23.63-.24 1.05-.64.41-.41.63-.98.21-.58.21-1.26 0-1.41-.84-2.23t-2.53-.82q-1.68 0-2.52.82t-.84 2.23q0 .67.21 1.24t.63.99q.41.41 1.05.65.64.23 1.47.23m5.16 10.8q0-.55-.33-.91-.33-.35-.91-.54-.57-.2-1.34-.29-.76-.09-1.62-.14-.86-.04-1.78-.08t-1.79-.15q-.75.43-1.23 1-.47.57-.47 1.33 0 .5.25.94.25.43.8.75.54.31 1.41.49.87.17 2.13.17 1.28 0 2.2-.19.93-.2 1.53-.54t.88-.81q.27-.47.27-1.03m-.9-19.18h5.46v1.7q0 .81-.99 1l-1.7.31q.39.98.39 2.15 0 1.4-.56 2.54-.57 1.14-1.57 1.93-1 .8-2.35 1.24-1.36.43-2.94.43-.55 0-1.07-.06-.52-.05-1.02-.14-.89.53-.89 1.2 0 .57.53.84t1.4.38 1.98.14 2.27.12q1.17.09 2.28.32t1.98.73 1.4 1.36q.52.86.52 2.21 0 1.26-.62 2.45-.62 1.18-1.79 2.11-1.18.92-2.89 1.48-1.71.57-3.89.57-2.15 0-3.74-.42-1.59-.41-2.64-1.11-1.06-.69-1.58-1.6-.52-.9-.52-1.89 0-1.33.81-2.22.8-.9 2.21-1.44-.76-.39-1.2-1.03-.45-.65-.45-1.71 0-.42.16-.87.16-.46.46-.9.31-.45.77-.84.46-.4 1.09-.72-1.44-.77-2.26-2.07-.83-1.29-.83-3.03 0-1.41.57-2.55.56-1.13 1.57-1.94 1.01-.8 2.39-1.23 1.37-.42 3-.42 1.22 0 2.3.25 1.07.25 1.96.73m11.95 6.66h8.62q0-.89-.25-1.68-.25-.78-.75-1.38-.5-.59-1.27-.93-.76-.34-1.78-.34-1.98 0-3.12 1.13-1.14 1.12-1.45 3.2m11.65 2.75h-11.74q.11 1.46.51 2.53.41 1.06 1.08 1.76.66.69 1.58 1.03.91.34 2.02.34t1.92-.25q.8-.26 1.41-.58.6-.31 1.05-.57t.88-.26q.57 0 .85.42l1.31 1.67q-.76.89-1.7 1.49t-1.97.96-2.09.51-2.06.15q-1.98 0-3.68-.66-1.71-.66-2.96-1.94-1.26-1.29-1.98-3.18-.72-1.9-.72-4.4 0-1.94.62-3.65.63-1.71 1.81-2.98 1.17-1.27 2.87-2.01 1.69-.74 3.82-.74 1.79 0 3.31.58 1.51.57 2.61 1.67 1.09 1.1 1.71 2.7t.62 3.66q0 1.03-.22 1.39-.23.36-.86.36"/></svg>